<svg id="Layer_1" data-name="Layer 1" xmlns="http://www.w3.org/2000/svg" xmlns:xlink="http://www.w3.org/1999/xlink" viewBox="0 0 400 400"><defs><style>.cls-1{fill:url(#radial-gradient);}.cls-2{fill:#1b1b1b;stroke:#000;stroke-miterlimit:10;}</style><radialGradient id="radial-gradient" cx="200" cy="200" r="199.5" gradientUnits="userSpaceOnUse"><stop offset="0" stop-color="#00c8ff"/><stop offset="0.98" stop-color="#0096ff"/></radialGradient></defs><title>webdl</title><rect class="cls-1" x="0.5" y="0.5" width="399" height="399" rx="39.5"/><path d="M360,1a39.05,39.05,0,0,1,39,39V360a39.05,39.05,0,0,1-39,39H40A39.05,39.05,0,0,1,1,360V40A39.05,39.05,0,0,1,40,1H360m0-1H40A40.12,40.12,0,0,0,0,40V360a40.12,40.12,0,0,0,40,40H360a40.12,40.12,0,0,0,40-40V40A40.12,40.12,0,0,0,360,0Z"/><path class="cls-2" d="M174.23,206.73,194,110.09h30.22L191.61,245.91H161.08l-24-90.86-24,90.86H82.65L50,110.09H80.22l19.91,96.46,24.26-96.46h25.68Z"/><path class="cls-2" d="M240.63,245.91V110.09h51.55q26.79,0,40.64,9.47t13.84,27.75a29,29,0,0,1-5.55,17.58A31.88,31.88,0,0,1,325.64,176q11.33,2.61,17.84,10.54T350,206q0,19.59-13.54,29.66t-38.62,10.26ZM271,167H293.4q22.94-.36,22.94-16.88,0-9.24-5.81-13.29t-18.35-4.06H271Zm0,19.78v36.66h26q10.72,0,16.73-4.71t6-13q0-18.66-20.93-18.94Z"/><path d="M238,340.44q0-15.81,7.09-25.19t19.41-9.37a20.69,20.69,0,0,1,16.31,7.37v-34.5h18.13v96H282.63l-.88-7.19A21.24,21.24,0,0,1,264.38,376a22.94,22.94,0,0,1-19.16-9.41Q238,357.19,238,340.44Zm18.06,1.34q0,9.53,3.32,14.59a10.77,10.77,0,0,0,9.62,5.07q8.37,0,11.81-7.08V327.64q-3.37-7.08-11.68-7.08Q256.07,320.56,256.06,341.78Z"/><path d="M332,374.75H313.87v-96H332Z"/></svg>